<svg width="25" height="25" viewBox="0 0 25 25" fill="none" xmlns="http://www.w3.org/2000/svg">
<path d="M16.9567 15.7562V19.9459H15.2703V15.7562C15.2703 12.0265 17.4997 8.8138 20.7064 7.36332L21.4045 8.88838C20.078 9.48799 18.9531 10.4544 18.1644 11.6723C17.3757 12.8901 16.9564 14.3079 16.9567 15.7562ZM8.52483 15.7562V19.9459H6.83845V15.7562C6.83857 14.308 6.41924 12.8905 5.63053 11.6728C4.84182 10.4551 3.71707 9.48877 2.39062 8.88922L3.08879 7.36332C4.70997 8.09609 6.08464 9.27715 7.04859 10.7654C8.01254 12.2537 8.52502 13.9862 8.52483 15.7562ZM11.8976 11.5664C10.7794 11.5664 9.7071 11.125 8.91646 10.3393C8.12582 9.55358 7.68164 8.48791 7.68164 7.37673C7.68164 6.26555 8.12582 5.19988 8.91646 4.41415C9.7071 3.62843 10.7794 3.18701 11.8976 3.18701C13.0157 3.18701 14.0881 3.62843 14.8787 4.41415C15.6694 5.19988 16.1135 6.26555 16.1135 7.37673C16.1135 8.48791 15.6694 9.55358 14.8787 10.3393C14.0881 11.125 13.0157 11.5664 11.8976 11.5664ZM11.8976 9.89056C12.2298 9.89056 12.5587 9.82554 12.8656 9.6992C13.1725 9.57287 13.4514 9.3877 13.6863 9.15427C13.9212 8.92084 14.1075 8.64372 14.2346 8.33873C14.3617 8.03374 14.4271 7.70685 14.4271 7.37673C14.4271 7.04661 14.3617 6.71972 14.2346 6.41473C14.1075 6.10974 13.9212 5.83261 13.6863 5.59918C13.4514 5.36575 13.1725 5.18058 12.8656 5.05425C12.5587 4.92792 12.2298 4.8629 11.8976 4.8629C11.2267 4.8629 10.5833 5.12775 10.1089 5.59918C9.63452 6.07062 9.36802 6.71002 9.36802 7.37673C9.36802 8.04344 9.63452 8.68284 10.1089 9.15427C10.5833 9.62571 11.2267 9.89056 11.8976 9.89056Z" fill="#FFD700"/>
</svg>
