<svg width="25" height="25" viewBox="0 0 25 25" fill="none" xmlns="http://www.w3.org/2000/svg">
<g clip-path="url(#clip0_1487_10410)">
<path d="M13.4453 21.0903V23.0903H11.4453V21.0903H3.44531C3.1801 21.0903 2.92574 20.985 2.73821 20.7974C2.55067 20.6099 2.44531 20.3556 2.44531 20.0903V4.09033C2.44531 3.82512 2.55067 3.57076 2.73821 3.38323C2.92574 3.19569 3.1801 3.09033 3.44531 3.09033H9.44531C10.0129 3.08966 10.5741 3.21009 11.0914 3.44358C11.6088 3.67707 12.0703 4.01825 12.4453 4.44433C12.8203 4.01825 13.2819 3.67707 13.7992 3.44358C14.3165 3.21009 14.8777 3.08966 15.4453 3.09033H21.4453C21.7105 3.09033 21.9649 3.19569 22.1524 3.38323C22.34 3.57076 22.4453 3.82512 22.4453 4.09033V20.0903C22.4453 20.3556 22.34 20.6099 22.1524 20.7974C21.9649 20.985 21.7105 21.0903 21.4453 21.0903H13.4453ZM20.4453 19.0903V5.09033H15.4453C14.9149 5.09033 14.4062 5.30105 14.0311 5.67612C13.656 6.05119 13.4453 6.5599 13.4453 7.09033V19.0903H20.4453ZM11.4453 19.0903V7.09033C11.4453 6.5599 11.2346 6.05119 10.8595 5.67612C10.4845 5.30105 9.97575 5.09033 9.44531 5.09033H4.44531V19.0903H11.4453Z" fill="#FFD700"/>
</g>
<defs>
<clipPath id="clip0_1487_10410">
<rect width="24" height="24" fill="white" transform="translate(0.445312 0.090332)"/>
</clipPath>
</defs>
</svg>
