<svg width="27" height="27" viewBox="0 0 27 27" fill="none" xmlns="http://www.w3.org/2000/svg">
<g clip-path="url(#clip0_1485_8518)">
<path d="M20.8546 22.9929H5.61265C5.32391 22.9929 5.04699 22.8782 4.84282 22.674C4.63864 22.4699 4.52394 22.193 4.52394 21.9042V12.1058H1.25781L12.5009 1.88502C12.7014 1.70263 12.9626 1.60156 13.2336 1.60156C13.5046 1.60156 13.7659 1.70263 13.9663 1.88502L25.2094 12.1058H21.9433V21.9042C21.9433 22.193 21.8286 22.4699 21.6244 22.674C21.4202 22.8782 21.1433 22.9929 20.8546 22.9929ZM6.70136 20.8155H19.7659V10.0993L13.2336 4.16151L6.70136 10.0993V20.8155Z" fill="#FFD700"/>
<path d="M9.96755 14.6554C9.15144 14.588 8.52344 13.906 8.52344 13.0871C11.6583 13.3461 14.8093 13.3461 17.9442 13.0871C17.9442 13.906 17.3162 14.588 16.5001 14.6554L16.2586 14.6754C14.2455 14.8417 12.2221 14.8417 10.209 14.6754L9.96755 14.6554Z" fill="#FFD700"/>
<path d="M14.1527 10.741C14.2201 9.92488 14.9021 9.29688 15.721 9.29688L15.5667 11.165C15.4104 13.0566 15.4104 14.9579 15.5667 16.8495L15.6017 17.2735C15.6659 18.0511 15.0522 18.7176 14.272 18.7176L14.1327 17.0321C13.9664 15.019 13.9664 12.9956 14.1327 10.9824L14.1527 10.741Z" fill="#FFD700"/>
<path d="M12.3161 10.741C12.2487 9.92488 11.5666 9.29688 10.7477 9.29688L10.9021 11.165C11.0584 13.0566 11.0584 14.9579 10.9021 16.8495L10.8671 17.2735C10.8028 18.0511 11.4166 18.7176 12.1968 18.7176L12.336 17.0321C12.5024 15.019 12.5024 12.9956 12.336 10.9824L12.3161 10.741Z" fill="#FFD700"/>
</g>
<defs>
<clipPath id="clip0_1485_8518">
<rect width="26.129" height="26.129" fill="white" transform="translate(0.167969 0.129883)"/>
</clipPath>
</defs>
</svg>
